# xmcd
#
# Track frame offsets: 
#        150
#        11910
#        25955
#        43472
#        58080
#        71015
#        85772
#        98695
#        113712
#        126692
#        141482
#        156137
#        167462
#        180060
#        193362
#        208672
#        222120
#        237385
#        252770
#        267360
#        282080
#        293700
#
# Disc length: 4107 seconds
#
# Revision: 2
# Processed by: cddbd v1.5.2PL0 Copyright (c) Steve Scherf et al.
# Submitted via: ExactAudioCopy v0.99pb5
#
DISCID=4e100916
DTITLE=Benny Goodman - The Essence Of Benny Goodman
DYEAR=1900
DGENRE=Jazz
TTITLE0=Let's Dance
TTITLE1=Honeysuckle Rose
TTITLE2=The Man I Love
TTITLE3=Moonlight On The Ganges
TTITLE4=Somebody Stole My Gal
TTITLE5=Clarinet A La King
TTITLE6=Solo Flight
TTITLE7=Flyng Home
TTITLE8=Rose Room
TTITLE9=Stardust
TTITLE10=Memories Of You
TTITLE11=Soft Winds
TTITLE12=Seven Come Eleven
TTITLE13=Good Enough To Keep (Airmail Special)
TTITLE14=As Long As I Live
TTITLE15=I Found A New Baby
TTITLE16=A Smo-o-o-oth One
TTITLE17=Where Or When
TTITLE18=One The Sunny Side Of The Street
TTITLE19=Why Don't You Do Right
TTITLE20=After You've Gone
TTITLE21=Good-Bye
EXTD=
EXTT0=
EXTT1=
EXTT2=
EXTT3=
EXTT4=
EXTT5=
EXTT6=
EXTT7=
EXTT8=
EXTT9=
EXTT10=
EXTT11=
EXTT12=
EXTT13=
EXTT14=
EXTT15=
EXTT16=
EXTT17=
EXTT18=
EXTT19=
EXTT20=
EXTT21=
PLAYORDER=
